<svg xmlns="http://www.w3.org/2000/svg" width="2900" height="1130" viewBox="0 0 2900 1130"><g transform="translate(80 90)">
<defs>
  <linearGradient id="pg0" x1="0" y1="0" x2="1" y2="1">
    <stop offset="0" stop-color="#FFE83A"/><stop offset="0.55" stop-color="#F2B705"/><stop offset="1" stop-color="#C98A00"/>
  </linearGradient>
  <linearGradient id="st0" x1="0" y1="0" x2="1" y2="0">
    <stop offset="0" stop-color="#FF8A00" stop-opacity="0.0"/><stop offset="0.35" stop-color="#FF8A00" stop-opacity="0.85"/>
    <stop offset="1" stop-color="#FFD21A"/>
  </linearGradient>
  <linearGradient id="gl0" x1="0" y1="0" x2="0" y2="1">
    <stop offset="0" stop-color="#FFFFFF" stop-opacity="0.34"/><stop offset="1" stop-color="#FFFFFF" stop-opacity="0"/>
  </linearGradient>
  <pattern id="cf0" width="12" height="12" patternUnits="userSpaceOnUse" patternTransform="rotate(45)">
    <rect width="12" height="12" fill="#17181B"/><rect width="6" height="6" fill="#2B2D32"/><rect x="6" y="6" width="6" height="6" fill="#2B2D32"/>
  </pattern>
  <clipPath id="cp0"><polygon points="205,60 600,60 490,360 95,360"/></clipPath>
  <filter id="ds0" x="-20%" y="-20%" width="140%" height="140%"><feGaussianBlur stdDeviation="7"/></filter>
  <filter id="sy0" x="-20%" y="-20%" width="140%" height="140%">
    <feDropShadow dx="3" dy="5" stdDeviation="4" flood-color="#000" flood-opacity="0.35"/>
  </filter>
</defs>
<polygon points="229,88 624,88 514,388 119,388" fill="#000" opacity="0.28" filter="url(#ds0)"/>
<polygon points="48.4,78 224.4,71.5 224.4,84.5" fill="url(#st0)"/>
<polygon points="93.8667,104 214.867,99.5 214.867,108.5" fill="url(#st0)"/>
<polygon points="5.06667,128 206.067,120.5 206.067,135.5" fill="url(#st0)"/>
<polygon points="49.8,156 195.8,151 195.8,161" fill="url(#st0)"/>
<polygon points="-39.7333,182 186.267,174 186.267,190" fill="url(#st0)"/>
<polygon points="40,210 176,205.5 176,214.5" fill="url(#st0)"/>
<polygon points="-44.5333,236 166.467,228.5 166.467,243.5" fill="url(#st0)"/>
<polygon points="0.2,264 156.2,258.5 156.2,269.5" fill="url(#st0)"/>
<polygon points="-84.3333,290 146.667,282 146.667,298" fill="url(#st0)"/>
<polygon points="5.4,318 136.4,313.5 136.4,322.5" fill="url(#st0)"/>
<polygon points="-58.4,342 127.6,335.5 127.6,348.5" fill="url(#st0)"/>
<polygon points="221,76 616,76 506,376 111,376" fill="url(#cf0)"/>
<polygon points="221,76 616,76 506,376 111,376" fill="none" stroke="#000" stroke-opacity="0.5" stroke-width="2"/>
<polygon points="205,60 600,60 490,360 95,360" fill="url(#pg0)"/>
<g clip-path="url(#cp0)">
  <polygon points="165,60 600,60 552,190 117,190" fill="url(#gl0)"/>
</g>
<polygon points="205,60 600,60 490,360 95,360" fill="none" stroke="#FFFFFF" stroke-opacity="0.85" stroke-width="3.5" stroke-linejoin="round"/>
<polyline points="95,360 490,360 600,60" fill="none" stroke="#000" stroke-opacity="0.28" stroke-width="3.5" stroke-linejoin="round"/>
<g filter="url(#sy0)" transform="translate(348 210) skewX(-10)"><polygon points="-24,-112 24,-112 13,34 -13,34" fill="#fff"/><rect x="-19" y="58" width="38" height="38" rx="5" fill="#fff"/></g></g><g transform="translate(780 90)">
<defs>
  <linearGradient id="pg1" x1="0" y1="0" x2="1" y2="1">
    <stop offset="0" stop-color="#FF9A2E"/><stop offset="0.55" stop-color="#F36A0A"/><stop offset="1" stop-color="#C44A00"/>
  </linearGradient>
  <linearGradient id="st1" x1="0" y1="0" x2="1" y2="0">
    <stop offset="0" stop-color="#E0195A" stop-opacity="0.0"/><stop offset="0.35" stop-color="#E0195A" stop-opacity="0.85"/>
    <stop offset="1" stop-color="#FF8A1E"/>
  </linearGradient>
  <linearGradient id="gl1" x1="0" y1="0" x2="0" y2="1">
    <stop offset="0" stop-color="#FFFFFF" stop-opacity="0.34"/><stop offset="1" stop-color="#FFFFFF" stop-opacity="0"/>
  </linearGradient>
  <pattern id="cf1" width="12" height="12" patternUnits="userSpaceOnUse" patternTransform="rotate(45)">
    <rect width="12" height="12" fill="#17181B"/><rect width="6" height="6" fill="#2B2D32"/><rect x="6" y="6" width="6" height="6" fill="#2B2D32"/>
  </pattern>
  <clipPath id="cp1"><polygon points="205,60 600,60 490,360 95,360"/></clipPath>
  <filter id="ds1" x="-20%" y="-20%" width="140%" height="140%"><feGaussianBlur stdDeviation="7"/></filter>
  <filter id="sy1" x="-20%" y="-20%" width="140%" height="140%">
    <feDropShadow dx="3" dy="5" stdDeviation="4" flood-color="#000" flood-opacity="0.35"/>
  </filter>
</defs>
<polygon points="229,88 624,88 514,388 119,388" fill="#000" opacity="0.28" filter="url(#ds1)"/>
<polygon points="48.4,78 224.4,71.5 224.4,84.5" fill="url(#st1)"/>
<polygon points="93.8667,104 214.867,99.5 214.867,108.5" fill="url(#st1)"/>
<polygon points="5.06667,128 206.067,120.5 206.067,135.5" fill="url(#st1)"/>
<polygon points="49.8,156 195.8,151 195.8,161" fill="url(#st1)"/>
<polygon points="-39.7333,182 186.267,174 186.267,190" fill="url(#st1)"/>
<polygon points="40,210 176,205.5 176,214.5" fill="url(#st1)"/>
<polygon points="-44.5333,236 166.467,228.5 166.467,243.5" fill="url(#st1)"/>
<polygon points="0.2,264 156.2,258.5 156.2,269.5" fill="url(#st1)"/>
<polygon points="-84.3333,290 146.667,282 146.667,298" fill="url(#st1)"/>
<polygon points="5.4,318 136.4,313.5 136.4,322.5" fill="url(#st1)"/>
<polygon points="-58.4,342 127.6,335.5 127.6,348.5" fill="url(#st1)"/>
<polygon points="221,76 616,76 506,376 111,376" fill="url(#cf1)"/>
<polygon points="221,76 616,76 506,376 111,376" fill="none" stroke="#000" stroke-opacity="0.5" stroke-width="2"/>
<polygon points="205,60 600,60 490,360 95,360" fill="url(#pg1)"/>
<g clip-path="url(#cp1)">
  <polygon points="165,60 600,60 552,190 117,190" fill="url(#gl1)"/>
</g>
<polygon points="205,60 600,60 490,360 95,360" fill="none" stroke="#FFFFFF" stroke-opacity="0.85" stroke-width="3.5" stroke-linejoin="round"/>
<polyline points="95,360 490,360 600,60" fill="none" stroke="#000" stroke-opacity="0.28" stroke-width="3.5" stroke-linejoin="round"/>
<g filter="url(#sy1)" transform="translate(348 210) skewX(-10)"><circle cx="0" cy="14" r="78" fill="none" stroke="#fff" stroke-width="22"/><rect x="-17" y="-112" width="34" height="34" rx="5" fill="#fff"/><rect x="-34" y="-124" width="68" height="20" rx="8" fill="#fff"/><rect x="58" y="-84" width="34" height="20" rx="6" fill="#fff" transform="rotate(42 75 -74)"/><line x1="0" y1="14" x2="34" y2="-30" stroke="#fff" stroke-width="15" stroke-linecap="round"/><circle cx="0" cy="14" r="14" fill="#fff"/></g></g><g transform="translate(1480 90)">
<defs>
  <linearGradient id="pg2" x1="0" y1="0" x2="1" y2="1">
    <stop offset="0" stop-color="#FF9A2E"/><stop offset="0.55" stop-color="#F36A0A"/><stop offset="1" stop-color="#C44A00"/>
  </linearGradient>
  <linearGradient id="st2" x1="0" y1="0" x2="1" y2="0">
    <stop offset="0" stop-color="#E0195A" stop-opacity="0.0"/><stop offset="0.35" stop-color="#E0195A" stop-opacity="0.85"/>
    <stop offset="1" stop-color="#FF8A1E"/>
  </linearGradient>
  <linearGradient id="gl2" x1="0" y1="0" x2="0" y2="1">
    <stop offset="0" stop-color="#FFFFFF" stop-opacity="0.34"/><stop offset="1" stop-color="#FFFFFF" stop-opacity="0"/>
  </linearGradient>
  <pattern id="cf2" width="12" height="12" patternUnits="userSpaceOnUse" patternTransform="rotate(45)">
    <rect width="12" height="12" fill="#17181B"/><rect width="6" height="6" fill="#2B2D32"/><rect x="6" y="6" width="6" height="6" fill="#2B2D32"/>
  </pattern>
  <clipPath id="cp2"><polygon points="205,60 600,60 490,360 95,360"/></clipPath>
  <filter id="ds2" x="-20%" y="-20%" width="140%" height="140%"><feGaussianBlur stdDeviation="7"/></filter>
  <filter id="sy2" x="-20%" y="-20%" width="140%" height="140%">
    <feDropShadow dx="3" dy="5" stdDeviation="4" flood-color="#000" flood-opacity="0.35"/>
  </filter>
</defs>
<polygon points="229,88 624,88 514,388 119,388" fill="#000" opacity="0.28" filter="url(#ds2)"/>
<polygon points="48.4,78 224.4,71.5 224.4,84.5" fill="url(#st2)"/>
<polygon points="93.8667,104 214.867,99.5 214.867,108.5" fill="url(#st2)"/>
<polygon points="5.06667,128 206.067,120.5 206.067,135.5" fill="url(#st2)"/>
<polygon points="49.8,156 195.8,151 195.8,161" fill="url(#st2)"/>
<polygon points="-39.7333,182 186.267,174 186.267,190" fill="url(#st2)"/>
<polygon points="40,210 176,205.5 176,214.5" fill="url(#st2)"/>
<polygon points="-44.5333,236 166.467,228.5 166.467,243.5" fill="url(#st2)"/>
<polygon points="0.2,264 156.2,258.5 156.2,269.5" fill="url(#st2)"/>
<polygon points="-84.3333,290 146.667,282 146.667,298" fill="url(#st2)"/>
<polygon points="5.4,318 136.4,313.5 136.4,322.5" fill="url(#st2)"/>
<polygon points="-58.4,342 127.6,335.5 127.6,348.5" fill="url(#st2)"/>
<polygon points="221,76 616,76 506,376 111,376" fill="url(#cf2)"/>
<polygon points="221,76 616,76 506,376 111,376" fill="none" stroke="#000" stroke-opacity="0.5" stroke-width="2"/>
<polygon points="205,60 600,60 490,360 95,360" fill="url(#pg2)"/>
<g clip-path="url(#cp2)">
  <polygon points="165,60 600,60 552,190 117,190" fill="url(#gl2)"/>
</g>
<polygon points="205,60 600,60 490,360 95,360" fill="none" stroke="#FFFFFF" stroke-opacity="0.85" stroke-width="3.5" stroke-linejoin="round"/>
<polyline points="95,360 490,360 600,60" fill="none" stroke="#000" stroke-opacity="0.28" stroke-width="3.5" stroke-linejoin="round"/>
<g filter="url(#sy2)" transform="translate(348 210) skewX(-10)"><rect x="-106" y="-104" width="102" height="208" rx="18" fill="#fff" transform="rotate(4 -55 0)"/><g transform="rotate(4 -55 0)"><circle cx="-76" cy="-66" r="11" fill="#F36A0A"/><circle cx="-34" cy="-66" r="11" fill="#F36A0A"/><circle cx="-76" cy="-22" r="11" fill="#F36A0A"/><circle cx="-34" cy="-22" r="11" fill="#F36A0A"/><circle cx="-76" cy="22" r="11" fill="#F36A0A"/><circle cx="-34" cy="22" r="11" fill="#F36A0A"/><circle cx="-76" cy="66" r="11" fill="#F36A0A"/><circle cx="-34" cy="66" r="11" fill="#F36A0A"/></g><polygon points="66,-108 122,-34 88,-34 88,96 44,96 44,-34 10,-34" fill="#fff"/></g></g><g transform="translate(2180 90)">
<defs>
  <linearGradient id="pg3" x1="0" y1="0" x2="1" y2="1">
    <stop offset="0" stop-color="#F2434B"/><stop offset="0.55" stop-color="#D11A22"/><stop offset="1" stop-color="#8E0D14"/>
  </linearGradient>
  <linearGradient id="st3" x1="0" y1="0" x2="1" y2="0">
    <stop offset="0" stop-color="#B0126A" stop-opacity="0.0"/><stop offset="0.35" stop-color="#B0126A" stop-opacity="0.85"/>
    <stop offset="1" stop-color="#F0323A"/>
  </linearGradient>
  <linearGradient id="gl3" x1="0" y1="0" x2="0" y2="1">
    <stop offset="0" stop-color="#FFFFFF" stop-opacity="0.34"/><stop offset="1" stop-color="#FFFFFF" stop-opacity="0"/>
  </linearGradient>
  <pattern id="cf3" width="12" height="12" patternUnits="userSpaceOnUse" patternTransform="rotate(45)">
    <rect width="12" height="12" fill="#17181B"/><rect width="6" height="6" fill="#2B2D32"/><rect x="6" y="6" width="6" height="6" fill="#2B2D32"/>
  </pattern>
  <clipPath id="cp3"><polygon points="205,60 600,60 490,360 95,360"/></clipPath>
  <filter id="ds3" x="-20%" y="-20%" width="140%" height="140%"><feGaussianBlur stdDeviation="7"/></filter>
  <filter id="sy3" x="-20%" y="-20%" width="140%" height="140%">
    <feDropShadow dx="3" dy="5" stdDeviation="4" flood-color="#000" flood-opacity="0.35"/>
  </filter>
</defs>
<polygon points="229,88 624,88 514,388 119,388" fill="#000" opacity="0.28" filter="url(#ds3)"/>
<polygon points="48.4,78 224.4,71.5 224.4,84.5" fill="url(#st3)"/>
<polygon points="93.8667,104 214.867,99.5 214.867,108.5" fill="url(#st3)"/>
<polygon points="5.06667,128 206.067,120.5 206.067,135.5" fill="url(#st3)"/>
<polygon points="49.8,156 195.8,151 195.8,161" fill="url(#st3)"/>
<polygon points="-39.7333,182 186.267,174 186.267,190" fill="url(#st3)"/>
<polygon points="40,210 176,205.5 176,214.5" fill="url(#st3)"/>
<polygon points="-44.5333,236 166.467,228.5 166.467,243.5" fill="url(#st3)"/>
<polygon points="0.2,264 156.2,258.5 156.2,269.5" fill="url(#st3)"/>
<polygon points="-84.3333,290 146.667,282 146.667,298" fill="url(#st3)"/>
<polygon points="5.4,318 136.4,313.5 136.4,322.5" fill="url(#st3)"/>
<polygon points="-58.4,342 127.6,335.5 127.6,348.5" fill="url(#st3)"/>
<polygon points="221,76 616,76 506,376 111,376" fill="url(#cf3)"/>
<polygon points="221,76 616,76 506,376 111,376" fill="none" stroke="#000" stroke-opacity="0.5" stroke-width="2"/>
<polygon points="205,60 600,60 490,360 95,360" fill="url(#pg3)"/>
<g clip-path="url(#cp3)">
  <polygon points="165,60 600,60 552,190 117,190" fill="url(#gl3)"/>
</g>
<polygon points="205,60 600,60 490,360 95,360" fill="none" stroke="#FFFFFF" stroke-opacity="0.85" stroke-width="3.5" stroke-linejoin="round"/>
<polyline points="95,360 490,360 600,60" fill="none" stroke="#000" stroke-opacity="0.28" stroke-width="3.5" stroke-linejoin="round"/>
<g filter="url(#sy3)" transform="translate(348 210) skewX(-10)"><polygon points="-112,96 -72,-100 -44,-100 -52,96" fill="#fff"/><polygon points="-22,96 -30,-100 -2,-100 38,96" fill="#fff"/><rect x="-42" y="52" width="10" height="40" fill="#fff"/><rect x="-42" y="-12" width="10" height="40" fill="#fff"/><rect x="-42" y="-76" width="10" height="40" fill="#fff"/><path d="M 62 96 L 62 20 Q 62 -34 112 -34" fill="none" stroke="#fff" stroke-width="30" stroke-linejoin="round"/><polygon points="104,-84 162,-34 104,16" fill="#fff"/></g></g><g transform="translate(80 600)">
<defs>
  <linearGradient id="pg4" x1="0" y1="0" x2="1" y2="1">
    <stop offset="0" stop-color="#F2434B"/><stop offset="0.55" stop-color="#D11A22"/><stop offset="1" stop-color="#8E0D14"/>
  </linearGradient>
  <linearGradient id="st4" x1="0" y1="0" x2="1" y2="0">
    <stop offset="0" stop-color="#B0126A" stop-opacity="0.0"/><stop offset="0.35" stop-color="#B0126A" stop-opacity="0.85"/>
    <stop offset="1" stop-color="#F0323A"/>
  </linearGradient>
  <linearGradient id="gl4" x1="0" y1="0" x2="0" y2="1">
    <stop offset="0" stop-color="#FFFFFF" stop-opacity="0.34"/><stop offset="1" stop-color="#FFFFFF" stop-opacity="0"/>
  </linearGradient>
  <pattern id="cf4" width="12" height="12" patternUnits="userSpaceOnUse" patternTransform="rotate(45)">
    <rect width="12" height="12" fill="#17181B"/><rect width="6" height="6" fill="#2B2D32"/><rect x="6" y="6" width="6" height="6" fill="#2B2D32"/>
  </pattern>
  <clipPath id="cp4"><polygon points="205,60 600,60 490,360 95,360"/></clipPath>
  <filter id="ds4" x="-20%" y="-20%" width="140%" height="140%"><feGaussianBlur stdDeviation="7"/></filter>
  <filter id="sy4" x="-20%" y="-20%" width="140%" height="140%">
    <feDropShadow dx="3" dy="5" stdDeviation="4" flood-color="#000" flood-opacity="0.35"/>
  </filter>
</defs>
<polygon points="229,88 624,88 514,388 119,388" fill="#000" opacity="0.28" filter="url(#ds4)"/>
<polygon points="48.4,78 224.4,71.5 224.4,84.5" fill="url(#st4)"/>
<polygon points="93.8667,104 214.867,99.5 214.867,108.5" fill="url(#st4)"/>
<polygon points="5.06667,128 206.067,120.5 206.067,135.5" fill="url(#st4)"/>
<polygon points="49.8,156 195.8,151 195.8,161" fill="url(#st4)"/>
<polygon points="-39.7333,182 186.267,174 186.267,190" fill="url(#st4)"/>
<polygon points="40,210 176,205.5 176,214.5" fill="url(#st4)"/>
<polygon points="-44.5333,236 166.467,228.5 166.467,243.5" fill="url(#st4)"/>
<polygon points="0.2,264 156.2,258.5 156.2,269.5" fill="url(#st4)"/>
<polygon points="-84.3333,290 146.667,282 146.667,298" fill="url(#st4)"/>
<polygon points="5.4,318 136.4,313.5 136.4,322.5" fill="url(#st4)"/>
<polygon points="-58.4,342 127.6,335.5 127.6,348.5" fill="url(#st4)"/>
<polygon points="221,76 616,76 506,376 111,376" fill="url(#cf4)"/>
<polygon points="221,76 616,76 506,376 111,376" fill="none" stroke="#000" stroke-opacity="0.5" stroke-width="2"/>
<polygon points="205,60 600,60 490,360 95,360" fill="url(#pg4)"/>
<g clip-path="url(#cp4)">
  <polygon points="165,60 600,60 552,190 117,190" fill="url(#gl4)"/>
</g>
<polygon points="205,60 600,60 490,360 95,360" fill="none" stroke="#FFFFFF" stroke-opacity="0.85" stroke-width="3.5" stroke-linejoin="round"/>
<polyline points="95,360 490,360 600,60" fill="none" stroke="#000" stroke-opacity="0.28" stroke-width="3.5" stroke-linejoin="round"/>
<g filter="url(#sy4)" transform="translate(348 210) skewX(-10)"><rect x="-71.5" y="-98" width="33" height="138" rx="16.5" fill="#fff"/><rect x="-29.5" y="-120" width="33" height="160" rx="16.5" fill="#fff"/><rect x="12.5" y="-108" width="33" height="148" rx="16.5" fill="#fff"/><rect x="54.5" y="-78" width="33" height="118" rx="16.5" fill="#fff"/><path d="M -71.5 6 H 87.5 V 46 C 87.5 96 59.5 116 25.5 116 H -25.5 C -49.5 116 -65.5 100 -77.5 70 L -71.5 30 Z" fill="#fff"/><path d="M -67.5 44 C -93.5 30 -115.5 6 -129.5 -6 C -143.5 -16 -157.5 -12 -151.5 2 C -137.5 26 -107.5 58 -61.5 92 Z" fill="#fff"/></g></g><g transform="translate(780 600)">
<defs>
  <linearGradient id="pg5" x1="0" y1="0" x2="1" y2="1">
    <stop offset="0" stop-color="#FF9A2E"/><stop offset="0.55" stop-color="#F36A0A"/><stop offset="1" stop-color="#C44A00"/>
  </linearGradient>
  <linearGradient id="st5" x1="0" y1="0" x2="1" y2="0">
    <stop offset="0" stop-color="#E0195A" stop-opacity="0.0"/><stop offset="0.35" stop-color="#E0195A" stop-opacity="0.85"/>
    <stop offset="1" stop-color="#FF8A1E"/>
  </linearGradient>
  <linearGradient id="gl5" x1="0" y1="0" x2="0" y2="1">
    <stop offset="0" stop-color="#FFFFFF" stop-opacity="0.34"/><stop offset="1" stop-color="#FFFFFF" stop-opacity="0"/>
  </linearGradient>
  <pattern id="cf5" width="12" height="12" patternUnits="userSpaceOnUse" patternTransform="rotate(45)">
    <rect width="12" height="12" fill="#17181B"/><rect width="6" height="6" fill="#2B2D32"/><rect x="6" y="6" width="6" height="6" fill="#2B2D32"/>
  </pattern>
  <clipPath id="cp5"><polygon points="205,60 600,60 490,360 95,360"/></clipPath>
  <filter id="ds5" x="-20%" y="-20%" width="140%" height="140%"><feGaussianBlur stdDeviation="7"/></filter>
  <filter id="sy5" x="-20%" y="-20%" width="140%" height="140%">
    <feDropShadow dx="3" dy="5" stdDeviation="4" flood-color="#000" flood-opacity="0.35"/>
  </filter>
</defs>
<polygon points="229,88 624,88 514,388 119,388" fill="#000" opacity="0.28" filter="url(#ds5)"/>
<polygon points="48.4,78 224.4,71.5 224.4,84.5" fill="url(#st5)"/>
<polygon points="93.8667,104 214.867,99.5 214.867,108.5" fill="url(#st5)"/>
<polygon points="5.06667,128 206.067,120.5 206.067,135.5" fill="url(#st5)"/>
<polygon points="49.8,156 195.8,151 195.8,161" fill="url(#st5)"/>
<polygon points="-39.7333,182 186.267,174 186.267,190" fill="url(#st5)"/>
<polygon points="40,210 176,205.5 176,214.5" fill="url(#st5)"/>
<polygon points="-44.5333,236 166.467,228.5 166.467,243.5" fill="url(#st5)"/>
<polygon points="0.2,264 156.2,258.5 156.2,269.5" fill="url(#st5)"/>
<polygon points="-84.3333,290 146.667,282 146.667,298" fill="url(#st5)"/>
<polygon points="5.4,318 136.4,313.5 136.4,322.5" fill="url(#st5)"/>
<polygon points="-58.4,342 127.6,335.5 127.6,348.5" fill="url(#st5)"/>
<polygon points="221,76 616,76 506,376 111,376" fill="url(#cf5)"/>
<polygon points="221,76 616,76 506,376 111,376" fill="none" stroke="#000" stroke-opacity="0.5" stroke-width="2"/>
<polygon points="205,60 600,60 490,360 95,360" fill="url(#pg5)"/>
<g clip-path="url(#cp5)">
  <polygon points="165,60 600,60 552,190 117,190" fill="url(#gl5)"/>
</g>
<polygon points="205,60 600,60 490,360 95,360" fill="none" stroke="#FFFFFF" stroke-opacity="0.85" stroke-width="3.5" stroke-linejoin="round"/>
<polyline points="95,360 490,360 600,60" fill="none" stroke="#000" stroke-opacity="0.28" stroke-width="3.5" stroke-linejoin="round"/>
<g filter="url(#sy5)" transform="translate(348 210) skewX(-10)"><path d="M -104 -6 Q -104 -62 -40 -62 L 44 -62" fill="none" stroke="#fff" stroke-width="32"/><polygon points="34,-118 116,-62 34,-6" fill="#fff"/><path d="M 104 6 Q 104 62 40 62 L -44 62" fill="none" stroke="#fff" stroke-width="32"/><polygon points="-34,6 -116,62 -34,118" fill="#fff"/></g></g><g transform="translate(1480 600)">
<defs>
  <linearGradient id="pg6" x1="0" y1="0" x2="1" y2="1">
    <stop offset="0" stop-color="#5A5D63"/><stop offset="0.55" stop-color="#2A2C30"/><stop offset="1" stop-color="#0E0F11"/>
  </linearGradient>
  <linearGradient id="st6" x1="0" y1="0" x2="1" y2="0">
    <stop offset="0" stop-color="#5A1A8A" stop-opacity="0.0"/><stop offset="0.35" stop-color="#5A1A8A" stop-opacity="0.85"/>
    <stop offset="1" stop-color="#3A3C42"/>
  </linearGradient>
  <linearGradient id="gl6" x1="0" y1="0" x2="0" y2="1">
    <stop offset="0" stop-color="#FFFFFF" stop-opacity="0.34"/><stop offset="1" stop-color="#FFFFFF" stop-opacity="0"/>
  </linearGradient>
  <pattern id="cf6" width="12" height="12" patternUnits="userSpaceOnUse" patternTransform="rotate(45)">
    <rect width="12" height="12" fill="#17181B"/><rect width="6" height="6" fill="#2B2D32"/><rect x="6" y="6" width="6" height="6" fill="#2B2D32"/>
  </pattern>
  <clipPath id="cp6"><polygon points="205,60 600,60 490,360 95,360"/></clipPath>
  <filter id="ds6" x="-20%" y="-20%" width="140%" height="140%"><feGaussianBlur stdDeviation="7"/></filter>
  <filter id="sy6" x="-20%" y="-20%" width="140%" height="140%">
    <feDropShadow dx="3" dy="5" stdDeviation="4" flood-color="#000" flood-opacity="0.35"/>
  </filter>
</defs>
<polygon points="229,88 624,88 514,388 119,388" fill="#000" opacity="0.28" filter="url(#ds6)"/>
<polygon points="48.4,78 224.4,71.5 224.4,84.5" fill="url(#st6)"/>
<polygon points="93.8667,104 214.867,99.5 214.867,108.5" fill="url(#st6)"/>
<polygon points="5.06667,128 206.067,120.5 206.067,135.5" fill="url(#st6)"/>
<polygon points="49.8,156 195.8,151 195.8,161" fill="url(#st6)"/>
<polygon points="-39.7333,182 186.267,174 186.267,190" fill="url(#st6)"/>
<polygon points="40,210 176,205.5 176,214.5" fill="url(#st6)"/>
<polygon points="-44.5333,236 166.467,228.5 166.467,243.5" fill="url(#st6)"/>
<polygon points="0.2,264 156.2,258.5 156.2,269.5" fill="url(#st6)"/>
<polygon points="-84.3333,290 146.667,282 146.667,298" fill="url(#st6)"/>
<polygon points="5.4,318 136.4,313.5 136.4,322.5" fill="url(#st6)"/>
<polygon points="-58.4,342 127.6,335.5 127.6,348.5" fill="url(#st6)"/>
<polygon points="221,76 616,76 506,376 111,376" fill="url(#cf6)"/>
<polygon points="221,76 616,76 506,376 111,376" fill="none" stroke="#000" stroke-opacity="0.5" stroke-width="2"/>
<polygon points="205,60 600,60 490,360 95,360" fill="url(#pg6)"/>
<g clip-path="url(#cp6)">
  <polygon points="165,60 600,60 552,190 117,190" fill="url(#gl6)"/>
</g>
<polygon points="205,60 600,60 490,360 95,360" fill="none" stroke="#FFFFFF" stroke-opacity="0.85" stroke-width="3.5" stroke-linejoin="round"/>
<polyline points="95,360 490,360 600,60" fill="none" stroke="#000" stroke-opacity="0.28" stroke-width="3.5" stroke-linejoin="round"/>
<g filter="url(#sy6)" transform="translate(348 210) skewX(-10)"><g transform="rotate(45)"><rect x="-112" y="-21" width="224" height="42" rx="8" fill="#F0222C"/></g><g transform="rotate(-45)"><rect x="-112" y="-21" width="224" height="42" rx="8" fill="#F0222C"/></g></g></g><g transform="translate(2180 600)">
<defs>
  <linearGradient id="pg7" x1="0" y1="0" x2="1" y2="1">
    <stop offset="0" stop-color="#3FD45A"/><stop offset="0.55" stop-color="#16A534"/><stop offset="1" stop-color="#0A6E20"/>
  </linearGradient>
  <linearGradient id="st7" x1="0" y1="0" x2="1" y2="0">
    <stop offset="0" stop-color="#0E7A3A" stop-opacity="0.0"/><stop offset="0.35" stop-color="#0E7A3A" stop-opacity="0.85"/>
    <stop offset="1" stop-color="#2FC24A"/>
  </linearGradient>
  <linearGradient id="gl7" x1="0" y1="0" x2="0" y2="1">
    <stop offset="0" stop-color="#FFFFFF" stop-opacity="0.34"/><stop offset="1" stop-color="#FFFFFF" stop-opacity="0"/>
  </linearGradient>
  <pattern id="cf7" width="12" height="12" patternUnits="userSpaceOnUse" patternTransform="rotate(45)">
    <rect width="12" height="12" fill="#17181B"/><rect width="6" height="6" fill="#2B2D32"/><rect x="6" y="6" width="6" height="6" fill="#2B2D32"/>
  </pattern>
  <clipPath id="cp7"><polygon points="205,60 600,60 490,360 95,360"/></clipPath>
  <filter id="ds7" x="-20%" y="-20%" width="140%" height="140%"><feGaussianBlur stdDeviation="7"/></filter>
  <filter id="sy7" x="-20%" y="-20%" width="140%" height="140%">
    <feDropShadow dx="3" dy="5" stdDeviation="4" flood-color="#000" flood-opacity="0.35"/>
  </filter>
</defs>
<polygon points="229,88 624,88 514,388 119,388" fill="#000" opacity="0.28" filter="url(#ds7)"/>
<polygon points="48.4,78 224.4,71.5 224.4,84.5" fill="url(#st7)"/>
<polygon points="93.8667,104 214.867,99.5 214.867,108.5" fill="url(#st7)"/>
<polygon points="5.06667,128 206.067,120.5 206.067,135.5" fill="url(#st7)"/>
<polygon points="49.8,156 195.8,151 195.8,161" fill="url(#st7)"/>
<polygon points="-39.7333,182 186.267,174 186.267,190" fill="url(#st7)"/>
<polygon points="40,210 176,205.5 176,214.5" fill="url(#st7)"/>
<polygon points="-44.5333,236 166.467,228.5 166.467,243.5" fill="url(#st7)"/>
<polygon points="0.2,264 156.2,258.5 156.2,269.5" fill="url(#st7)"/>
<polygon points="-84.3333,290 146.667,282 146.667,298" fill="url(#st7)"/>
<polygon points="5.4,318 136.4,313.5 136.4,322.5" fill="url(#st7)"/>
<polygon points="-58.4,342 127.6,335.5 127.6,348.5" fill="url(#st7)"/>
<polygon points="221,76 616,76 506,376 111,376" fill="url(#cf7)"/>
<polygon points="221,76 616,76 506,376 111,376" fill="none" stroke="#000" stroke-opacity="0.5" stroke-width="2"/>
<polygon points="205,60 600,60 490,360 95,360" fill="url(#pg7)"/>
<g clip-path="url(#cp7)">
  <polygon points="165,60 600,60 552,190 117,190" fill="url(#gl7)"/>
</g>
<polygon points="205,60 600,60 490,360 95,360" fill="none" stroke="#FFFFFF" stroke-opacity="0.85" stroke-width="3.5" stroke-linejoin="round"/>
<polyline points="95,360 490,360 600,60" fill="none" stroke="#000" stroke-opacity="0.28" stroke-width="3.5" stroke-linejoin="round"/>
<g filter="url(#sy7)" transform="translate(348 210) skewX(-10)"><polyline points="-98,6 -32,74 106,-84" fill="none" stroke="#fff" stroke-width="44" stroke-linecap="butt" stroke-linejoin="miter"/></g></g></svg>